<?xml version="1.0" encoding="utf-8"?>
<!-- Generator: Adobe Illustrator 26.2.1, SVG Export Plug-In . SVG Version: 6.00 Build 0)  -->
<svg version="1.1" id="Layer_1" xmlns="http://www.w3.org/2000/svg" xmlns:xlink="http://www.w3.org/1999/xlink" x="0px" y="0px"
	 viewBox="0 0 100 100" style="enable-background:new 0 0 100 100;" xml:space="preserve">
<style type="text/css">
	.st0{fill:#FFFFFF;stroke:#000000;stroke-width:4;stroke-linejoin:round;stroke-miterlimit:10;}
</style>
<g>
	<path class="st0" d="M57.04,37.29c15.83,4.81,27.23,11.28,26.2,15.15c-1.14,4.27-16.94,3.77-35.3-1.12s-32.32-12.3-31.18-16.57
		c1.03-3.87,14.14-3.82,30.27-0.13l0.02-0.09c1.14-4.27,3.51-4.17,6.27-3.43s4.88,1.82,3.74,6.09L57.04,37.29z"/>
	<path d="M41.29,53.61L24.61,65.57c-1,0.71-0.99,2.02,0.01,2.93c1,0.9,2.62,1.05,3.62,0.34l18.81-13.49
		C45.21,54.82,43.27,54.24,41.29,53.61z"/>
</g>
</svg>
