<?xml version="1.0" encoding="utf-8"?>
<!-- Generator: Adobe Illustrator 26.2.1, SVG Export Plug-In . SVG Version: 6.00 Build 0)  -->
<svg version="1.1" id="Layer_1" xmlns="http://www.w3.org/2000/svg" xmlns:xlink="http://www.w3.org/1999/xlink" x="0px" y="0px"
	 viewBox="0 0 100 100" style="enable-background:new 0 0 100 100;" xml:space="preserve">
<style type="text/css">
	.st0{fill:none;stroke:#000000;stroke-width:6;stroke-linecap:round;stroke-miterlimit:10;}
	.st1{fill:none;stroke:#000000;stroke-width:3;stroke-linecap:round;stroke-miterlimit:10;}
	.st2{fill:#FFFFFF;stroke:#000000;stroke-width:3;stroke-linecap:round;stroke-linejoin:round;stroke-miterlimit:10;}
</style>
<g>
	<line class="st0" x1="50" y1="72.82" x2="50" y2="50.89"/>
	<line class="st1" x1="50" y1="27.18" x2="50" y2="59.33"/>
	<path class="st2" d="M44.58,34.26C23.25,34.67,9,37.48,9,39.63c0,2.33,16.7,0.6,41,0.6s41,1.73,41-0.6
		c0-2.15-14.25-4.96-35.58-5.37l-1-0.66c0-3-1.43-3.42-4.42-3.42s-4.42,0.43-4.42,3.42L44.58,34.26z"/>
	<path class="st2" d="M44.58,52.06C23.25,51.64,9,48.84,9,46.68c0-2.33,16.7-0.6,41-0.6s41-1.73,41,0.6
		c0,2.15-14.25,4.96-35.58,5.37l-1,0.66c0,3-1.43,3.42-4.42,3.42s-4.42-0.43-4.42-3.42L44.58,52.06z"/>
</g>
</svg>
