<?xml version="1.0" encoding="utf-8"?>
<!-- Generator: Adobe Illustrator 26.2.1, SVG Export Plug-In . SVG Version: 6.00 Build 0)  -->
<svg version="1.1" id="Layer_1" xmlns="http://www.w3.org/2000/svg" xmlns:xlink="http://www.w3.org/1999/xlink" x="0px" y="0px"
	 viewBox="0 0 100 100" style="enable-background:new 0 0 100 100;" xml:space="preserve">
<style type="text/css">
	.st0{fill:#FFFFFF;stroke:#000000;stroke-width:2;stroke-miterlimit:10;}
	.st1{fill:none;stroke:#000000;stroke-width:5;stroke-miterlimit:10;}
</style>
<path class="st0" d="M51.7,7.19c-21.35,0-38.66,17.31-38.66,38.66S30.35,84.51,51.7,84.51S90.36,67.2,90.36,45.85
	S73.05,7.19,51.7,7.19z M62.78,73.24c-4.24,0-7.67-3.43-7.67-7.67s3.43-7.67,7.67-7.67s7.67,3.43,7.67,7.67S67.02,73.24,62.78,73.24
	z"/>
<path d="M19.24,78.19l-9.53,9.53c-1,1-1,2.62,0,3.62l0.72,0.72c1,1,2.62,1,3.62,0l9.85-9.85C22.27,80.98,20.72,79.64,19.24,78.19z"
	/>
<path d="M82.2,79.63c-1.55,1.39-3.17,2.66-4.86,3.82l8.61,8.61c1,1,2.62,1,3.62,0l0.72-0.72c1-1,1-2.62,0-3.62L82.2,79.63z"/>
<circle class="st1" cx="51.7" cy="45.85" r="38.66"/>
</svg>
