<?xml version="1.0" encoding="utf-8"?>
<!-- Generator: Adobe Illustrator 26.2.1, SVG Export Plug-In . SVG Version: 6.00 Build 0)  -->
<svg version="1.1" id="Layer_1" xmlns="http://www.w3.org/2000/svg" xmlns:xlink="http://www.w3.org/1999/xlink" x="0px" y="0px"
	 viewBox="0 0 100 100" style="enable-background:new 0 0 100 100;" xml:space="preserve">
<style type="text/css">
	.st0{fill:#FFFFFF;stroke:#000000;stroke-width:4;stroke-linejoin:round;stroke-miterlimit:10;}
</style>
<g>
	<path class="st0" d="M42.25,33.82C22.22,37.43,7.39,43.91,8.13,49.09c0.81,5.71,20.22,7.68,43.34,4.39s41.21-10.58,40.4-16.28
		c-0.74-5.18-16.78-7.28-37.02-5.17l-0.01-0.12c-0.81-5.72-3.73-5.97-7.21-5.47c-3.48,0.49-6.21,1.55-5.4,7.27L42.25,33.82z"/>
	<path d="M55.87,56.42l15.14,13.85c0.9,0.83,0.74,2.13-0.36,2.9c-1.1,0.78-2.73,0.74-3.63-0.09L49.94,57.45
		C51.83,57.15,53.83,56.8,55.87,56.42z"/>
</g>
</svg>
