<?xml version="1.0" encoding="utf-8"?>
<!-- Generator: Adobe Illustrator 26.2.1, SVG Export Plug-In . SVG Version: 6.00 Build 0)  -->
<svg version="1.1" id="Layer_1" xmlns="http://www.w3.org/2000/svg" xmlns:xlink="http://www.w3.org/1999/xlink" x="0px" y="0px"
	 viewBox="0 0 100 100" style="enable-background:new 0 0 100 100;" xml:space="preserve">
<g>
	<g>
		<path d="M74.08,21.78L15.5,80.36c-0.73,0.73-0.73,1.91,0,2.64l1.47,1.47c0.73,0.73,1.91,0.73,2.64,0l58.57-58.57
			c0,0,5.28-6.46,4.55-7.19l-1.47-1.47C80.54,16.5,74.08,21.78,74.08,21.78z"/>
		<path d="M83.76,16.2c-0.94-0.94-2.22-1.34-3.44-1.19c-0.89,0.11-1.75,0.5-2.43,1.19c-1.62,1.62-1.62,4.25,0,5.87
			c1.62,1.62,4.25,1.62,5.87,0c0.68-0.68,1.08-1.54,1.19-2.43C85.1,18.42,84.7,17.14,83.76,16.2z"/>
	</g>
	<g>
		<path d="M52.94,57.01l27.45,27.45c0.73,0.73,1.91,0.73,2.64,0L84.5,83c0.73-0.73,0.73-1.91,0-2.64L57.05,52.9"/>
		<path d="M47.06,42.92L25.92,21.78c0,0-6.46-5.28-7.19-4.55l-1.47,1.47c-0.73,0.73,4.55,7.19,4.55,7.19l21.14,21.14"/>
		<path d="M16.24,16.2c-0.94,0.94-1.34,2.22-1.19,3.44c0.11,0.89,0.5,1.75,1.19,2.43c1.62,1.62,4.25,1.62,5.87,0
			c1.62-1.62,1.62-4.25,0-5.87c-0.68-0.68-1.54-1.08-2.43-1.19C18.45,14.87,17.18,15.26,16.24,16.2z"/>
	</g>
</g>
</svg>
