<?xml version="1.0" encoding="utf-8"?>
<!-- Generator: Adobe Illustrator 26.2.1, SVG Export Plug-In . SVG Version: 6.00 Build 0)  -->
<svg version="1.1" id="Layer_1" xmlns="http://www.w3.org/2000/svg" xmlns:xlink="http://www.w3.org/1999/xlink" x="0px" y="0px"
	 viewBox="0 0 100 100" style="enable-background:new 0 0 100 100;" xml:space="preserve">
<style type="text/css">
	.st0{fill:#FFFFFF;stroke:#000000;stroke-width:5;stroke-miterlimit:10;}
	.st1{fill:none;stroke:#000000;stroke-width:5;stroke-miterlimit:10;}
</style>
<g>
	<ellipse class="st0" cx="50" cy="36.53" rx="42.18" ry="10.72"/>
	<path class="st1" d="M92.18,63.47c0,5.92-18.88,10.72-42.18,10.72S7.82,69.39,7.82,63.47"/>
	<line class="st1" x1="92.18" y1="36.46" x2="92.18" y2="63.66"/>
	<line class="st1" x1="7.82" y1="36.46" x2="7.82" y2="63.66"/>
	<line class="st1" x1="50.1" y1="47.24" x2="50.1" y2="74.19"/>
	<line class="st1" x1="75.13" y1="71.99" x2="75.13" y2="45.16"/>
	<line class="st1" x1="24.97" y1="45.16" x2="24.97" y2="71.99"/>
	<path d="M52.19,66.48h-4.17c-1.09,0-1.97-0.88-1.97-1.97v-7.57c0-1.09,0.88-1.97,1.97-1.97h4.17c1.09,0,1.97,0.88,1.97,1.97v7.57
		C54.16,65.59,53.27,66.48,52.19,66.48z"/>
	<path d="M27.06,64.33h-4.17c-1.09,0-1.97-0.88-1.97-1.97v-7.57c0-1.09,0.88-1.97,1.97-1.97h4.17c1.09,0,1.97,0.88,1.97,1.97v7.57
		C29.03,63.45,28.15,64.33,27.06,64.33z"/>
	<path d="M77.21,64.33h-4.17c-1.09,0-1.97-0.88-1.97-1.97v-7.57c0-1.09,0.88-1.97,1.97-1.97h4.17c1.09,0,1.97,0.88,1.97,1.97v7.57
		C79.18,63.45,78.3,64.33,77.21,64.33z"/>
</g>
</svg>
